nColumns=19
nRows=109
DataType=double
version=3
OpenSimVersion=4.1
endheader
time	ground_force_calcn_r_vx	ground_force_calcn_r_vy	ground_force_calcn_r_vz	ground_force_calcn_r_px	ground_force_calcn_r_py	ground_force_calcn_r_pz	ground_force_calcn_r_mx	ground_force_calcn_r_my	ground_force_calcn_r_mz	ground_force_calcn_l_vx	ground_force_calcn_l_vy	ground_force_calcn_l_vz	ground_force_calcn_l_px	ground_force_calcn_l_py	ground_force_calcn_l_pz	ground_force_calcn_l_mx	ground_force_calcn_l_my	ground_force_calcn_l_mz
1.9	0	0	0	0	0	0	0	0	0	-155.969	1004.12	40.9214	1.0497	0	-0.363244	0.454974	-2.9291	-0.119371
1.91	0	0	0	0	0	0	0	0	0	-156.008	1298.96	19.6421	1.02398	0	-0.359831	0.110587	-0.920773	-0.0139233
1.92	0	0	0	0	0	0	0	0	0	-178.934	1432.85	-9.41837	0.995735	0	-0.35906	-0.196491	1.57344	-0.0103425
1.93	0	0	0	0	0	0	0	0	0	-186.511	1508.2	-22.2397	0.961385	0	-0.357426	-0.412845	3.33842	-0.0492278
1.94	0	0	0	0	0	0	0	0	0	-160.502	1591.94	-17.286	0.921597	0	-0.356579	-0.372749	3.69711	-0.0401449
1.95	0	0	0	0	0	0	0	0	0	-110.64	1664.69	-6.61297	0.880865	0	-0.357095	-0.183584	2.7622	-0.0109728
1.96	0	0	0	0	0	0	0	0	0	-51.5965	1696.69	1.10054	0.841586	0	-0.357057	-0.0397443	1.30694	0.000847732
1.97	0	0	0	0	0	0	0	0	0	12.4101	1673.25	0.500729	0.802347	0	-0.356149	0.00217908	0.293807	8.7923e-05
1.98	0	0	0	0	0	0	0	0	0	81.9412	1588.72	-9.7395	0.760929	0	-0.354809	0.0180314	0.349603	-0.0021432
1.99	0	0	0	0	0	0	0	0	0	156.938	1443.45	-24.6809	0.715445	0	-0.352869	0.161835	1.48849	-0.0254511
2	0	0	0	0	0	0	0	0	0	221.667	1244.46	-37.9752	0.666683	0	-0.350482	0.564118	3.16702	-0.0966425
2.01	0	0	0	0	0	0	0	0	0	253.916	1007.2	-46.1392	0.620506	0	-0.34793	1.1648	4.62037	-0.211657
2.02	0	0	0	0	0	0	0	0	0	245.231	750.067	-47.889	0.581973	0	-0.345317	1.7216	5.26571	-0.336196
2.03	0	0	0	0	0	0	0	0	0	201.73	498.483	-43.5367	0.5514	0	-0.342477	1.98921	4.91542	-0.429305
2.04	0	0	0	0	0	0	0	0	0	138.388	286.402	-35.1827	0.52598	0	-0.339422	1.83145	3.79029	-0.465613
2.05	0	0	0	0	0	0	0	0	0	75.8914	138.185	-24.8714	0.495768	0	-0.337459	1.29088	2.35046	-0.423052
2.06	0	0	0	0	0	0	0	0	0	31.6616	55.2731	-13.869	0.46039	0	-0.333257	0.589058	1.02834	-0.25803
2.07	0	0	0	0	0	0	0	0	0	8.3535	19.8741	-4.86046	0.536136	0	-0.303231	0.0019519	0.00464383	-0.00113571
2.08	0	0	0	0	0	0	0	0	0	0	0	0	0	0	0	0	0	0
2.09	0	0	0	0	0	0	0	0	0	0	0	0	0	0	0	0	0	0
2.1	0	0	0	0	0	0	0	0	0	0	0	0	0	0	0	0	0	0
2.11	0	0	0	0	0	0	0	0	0	0	0	0	0	0	0	0	0	0
2.12	0	0	0	0	0	0	0	0	0	0	0	0	0	0	0	0	0	0
2.13	0	0	0	0	0	0	0	0	0	0	0	0	0	0	0	0	0	0
2.14	0	0	0	0	0	0	0	0	0	0	0	0	0	0	0	0	0	0
2.15	0	0	0	0	0	0	0	0	0	0	0	0	0	0	0	0	0	0
2.16	-4.89486	13.063	-5.21976	1.27705	0	-0.350585	-0.940417	2.5097	-1.00284	0	0	0	0	0	0	0	0	0
2.17	-18.9101	54.0001	-13.4045	1.12449	0	-0.348603	-1.52317	4.3496	-1.07971	0	0	0	0	0	0	0	0	0
2.18	-59.6823	194.098	-23.3285	1.10908	0	-0.336929	-1.69046	5.49772	-0.660766	0	0	0	0	0	0	0	0	0
2.19	-120.928	497.991	-26.7994	1.1035	0	-0.336357	-1.23877	5.10133	-0.274528	0	0	0	0	0	0	0	0	0
2.2	-158.353	903.645	-12.1795	1.08737	0	-0.338853	-0.513376	2.9296	-0.0394855	0	0	0	0	0	0	0	0	0
2.21	-174.287	1226.82	17.6299	1.06347	0	-0.341162	0.0499779	-0.351799	-0.00505549	0	0	0	0	0	0	0	0	0
2.22	-204.753	1376.92	41.1685	1.03527	0	-0.343522	0.499392	-3.35831	-0.10041	0	0	0	0	0	0	0	0	0
2.23	-226.533	1450.69	46.3165	1.00182	0	-0.345062	0.767296	-4.91369	-0.15688	0	0	0	0	0	0	0	0	0
2.24	-214.067	1549.49	40.2497	0.96497	0	-0.343552	0.633474	-4.58531	-0.119108	0	0	0	0	0	0	0	0	0
2.25	-170.009	1657.91	30.0221	0.928152	0	-0.341491	0.270444	-2.63734	-0.047758	0	0	0	0	0	0	0	0	0
2.26	-110.814	1726.81	20.1235	0.892515	0	-0.340156	-0.0072415	0.112844	0.00131503	0	0	0	0	0	0	0	0	0
2.27	-51.9192	1739.28	15.3442	0.85823	0	-0.338138	-0.078878	2.64239	0.0233115	0	0	0	0	0	0	0	0	0
2.28	4.14256	1693.74	14.7152	0.823897	0	-0.336367	0.0101797	4.1621	0.0361602	0	0	0	0	0	0	0	0	0
2.29	57.1022	1593.99	17.0297	0.789017	0	-0.335856	0.156173	4.3595	0.0465757	0	0	0	0	0	0	0	0	0
2.3	103.296	1447.25	24.8851	0.7552	0	-0.335468	0.244974	3.43225	0.0590167	0	0	0	0	0	0	0	0	0
2.31	141.751	1251.19	36.0168	0.721604	0	-0.335078	0.222326	1.96241	0.0564896	0	0	0	0	0	0	0	0	0
2.32	170.195	1002.74	43.6091	0.683467	0	-0.336073	0.111142	0.654818	0.0284781	0	0	0	0	0	0	0	0	0
2.33	179.456	725.753	45.2634	0.637788	0	-0.337841	0.00836162	0.0338159	0.00210902	0	0	0	0	0	0	0	0	0
2.34	157.489	465.774	41.8764	0.589105	0	-0.337873	0.0762133	0.2254	0.0202651	0	0	0	0	0	0	0	0	0
2.35	110.862	259.2	33.0883	0.544792	0	-0.334825	0.405624	0.948365	0.121064	0	0	0	0	0	0	0	0	0
2.36	61.2718	120.543	20.6023	0.516533	0	-0.328018	0.884664	1.74045	0.297463	0	0	0	0	0	0	0	0	0
2.37	23.8058	45.6095	10.2599	0.562158	0	-0.301878	1.20658	2.31169	0.520015	0	0	0	0	0	0	0	0	0
2.38	5.29353	15.499	5.38788	0.824995	0	-0.204404	0.896563	2.62506	0.912543	0	0	0	0	0	0	0	0	0
2.39	0	0	0	0	0	0	0	0	0	0	0	0	0	0	0	0	0	0
2.4	0	0	0	0	0	0	0	0	0	0	0	0	0	0	0	0	0	0
2.41	0	0	0	0	0	0	0	0	0	0	0	0	0	0	0	0	0	0
2.42	0	0	0	0	0	0	0	0	0	0	0	0	0	0	0	0	0	0
2.43	0	0	0	0	0	0	0	0	0	0	0	0	0	0	0	0	0	0
2.44	0	0	0	0	0	0	0	0	0	0	0	0	0	0	0	0	0	0
2.45	0	0	0	0	0	0	0	0	0	0	0	0	0	0	0	0	0	0
2.46	0	0	0	0	0	0	0	0	0	0	0	0	0	0	0	0	0	0
2.47	0	0	0	0	0	0	0	0	0	0	0	0	0	0	0	0	0	0
2.48	0	0	0	0	0	0	0	0	0	0	0	0	0	0	0	0	0	0
2.49	0	0	0	0	0	0	0	0	0	0	0	0	0	0	0	0	0	0
2.5	0	0	0	0	0	0	0	0	0	-14.1705	32.4438	2.98669	1.12858	0	-0.379292	-0.645656	1.47825	0.136084
2.51	0	0	0	0	0	0	0	0	0	-46.7587	118.401	7.90251	1.07433	0	-0.388358	-0.341105	0.863733	0.0576487
2.52	0	0	0	0	0	0	0	0	0	-108.355	329.811	20.7977	1.05942	0	-0.379557	-0.0719755	0.219079	0.0138151
2.53	0	0	0	0	0	0	0	0	0	-152.579	673.278	36.6314	1.04113	0	-0.369004	-0.022163	0.0977979	0.00532095
2.54	0	0	0	0	0	0	0	0	0	-147.369	1056.44	40.4005	1.013	0	-0.362093	-0.133079	0.953996	0.036483
2.55	0	0	0	0	0	0	0	0	0	-152.694	1341.73	25.3551	0.981917	0	-0.359409	-0.300339	2.6391	0.0498718
2.56	0	0	0	0	0	0	0	0	0	-173.75	1490.73	4.80868	0.948711	0	-0.358431	-0.510232	4.37765	0.0141211
2.57	0	0	0	0	0	0	0	0	0	-168.461	1584.36	-3.56832	0.911364	0	-0.357667	-0.563275	5.29755	-0.0119312
2.58	0	0	0	0	0	0	0	0	0	-132.77	1671.88	3.48568	0.87241	0	-0.357328	-0.392375	4.94089	0.0103012
2.59	0	0	0	0	0	0	0	0	0	-79.7273	1732.01	15.9238	0.834518	0	-0.357424	-0.16236	3.52715	0.032428
2.6	0	0	0	0	0	0	0	0	0	-18.5123	1738.65	22.7224	0.797222	0	-0.357463	-0.0194962	1.83105	0.02393
2.61	0	0	0	0	0	0	0	0	0	46.7823	1685.01	19.5107	0.759191	0	-0.356609	0.0200269	0.72133	0.00835228
2.62	0	0	0	0	0	0	0	0	0	116.631	1568.26	7.37325	0.718311	0	-0.354783	0.0527613	0.709444	0.0033355
2.63	0	0	0	0	0	0	0	0	0	188.293	1384.07	-9.58758	0.672424	0	-0.352633	0.235555	1.73148	-0.0119941
2.64	0	0	0	0	0	0	0	0	0	242.777	1141.35	-25.3436	0.624114	0	-0.350219	0.683542	3.21349	-0.0713551
2.65	0	0	0	0	0	0	0	0	0	257.661	866.368	-35.3786	0.580379	0	-0.347116	1.30799	4.39802	-0.179595
2.66	0	0	0	0	0	0	0	0	0	227.076	591.4	-38.9356	0.545204	0	-0.343495	1.82225	4.74591	-0.312453
2.67	0	0	0	0	0	0	0	0	0	165.199	351.652	-36.9469	0.516839	0	-0.339822	1.94299	4.13596	-0.434552
2.68	0	0	0	0	0	0	0	0	0	96.3921	176.554	-30.0178	0.490545	0	-0.337019	1.55285	2.84425	-0.483579
2.69	0	0	0	0	0	0	0	0	0	42.8071	73.3448	-19.4472	0.481532	0	-0.333612	0.789155	1.35212	-0.358512
2.7	0	0	0	0	0	0	0	0	0	13.4109	26.0561	-8.76622	0.575899	0	-0.320618	0.0144432	0.0280619	-0.00944103
2.71	0	0	0	0	0	0	0	0	0	0	0	0	0	0	0	0	0	0
2.72	0	0	0	0	0	0	0	0	0	0	0	0	0	0	0	0	0	0
2.73	0	0	0	0	0	0	0	0	0	0	0	0	0	0	0	0	0	0
2.74	0	0	0	0	0	0	0	0	0	0	0	0	0	0	0	0	0	0
2.75	0	0	0	0	0	0	0	0	0	0	0	0	0	0	0	0	0	0
2.76	0	0	0	0	0	0	0	0	0	0	0	0	0	0	0	0	0	0
2.77	0	0	0	0	0	0	0	0	0	0	0	0	0	0	0	0	0	0
2.78	0	0	0	0	0	0	0	0	0	0	0	0	0	0	0	0	0	0
2.79	0	0	0	0	0	0	0	0	0	0	0	0	0	0	0	0	0	0
2.8	-11.7987	33.326	-9.40732	1.09757	0	-0.272925	-0.335137	0.946615	-0.267212	0	0	0	0	0	0	0	0	0
2.81	-42.9763	132.238	-21.9824	1.09518	0	-0.273945	-0.509592	1.56801	-0.260656	0	0	0	0	0	0	0	0	0
2.82	-98.6764	372.635	-37.4445	1.09121	0	-0.274064	-0.485098	1.83189	-0.184079	0	0	0	0	0	0	0	0	0
2.83	-142.688	731.511	-47.2606	1.07617	0	-0.276231	-0.259374	1.32972	-0.0859089	0	0	0	0	0	0	0	0	0
2.84	-161.959	1052.48	-43.9816	1.05247	0	-0.27834	0.000959986	-0.00623838	0.000260694	0	0	0	0	0	0	0	0	0
2.85	-203.651	1223.61	-32.8379	1.02391	0	-0.279698	0.279879	-1.68161	0.0451292	0	0	0	0	0	0	0	0	0
2.86	-242.966	1308.48	-26.4163	0.988936	0	-0.280895	0.547994	-2.9512	0.0595802	0	0	0	0	0	0	0	0	0
2.87	-238.905	1409.07	-27.907	0.948301	0	-0.281464	0.558275	-3.29272	0.0652134	0	0	0	0	0	0	0	0	0
2.88	-196.718	1531.62	-32.146	0.906305	0	-0.280651	0.324305	-2.52499	0.0529951	0	0	0	0	0	0	0	0	0
2.89	-131.702	1622.55	-36.9666	0.86352	0	-0.279543	0.0721957	-0.889439	0.0202641	0	0	0	0	0	0	0	0	0
2.9	-52.4876	1647.89	-40.9614	0.81828	0	-0.278894	-0.0320358	1.00579	-0.0250008	0	0	0	0	0	0	0	0	0
2.91	33.5641	1613.15	-39.4398	0.771349	0	-0.278232	0.0513699	2.46894	-0.0603628	0	0	0	0	0	0	0	0	0
2.92	119.051	1530.05	-30.7606	0.725106	0	-0.277601	0.235923	3.03208	-0.0609581	0	0	0	0	0	0	0	0	0
2.93	194.668	1397.06	-17.9989	0.680624	0	-0.277724	0.367161	2.63498	-0.0339477	0	0	0	0	0	0	0	0	0
2.94	249.952	1214.23	-3.71239	0.638456	0	-0.278344	0.330974	1.60782	-0.00491576	0	0	0	0	0	0	0	0	0
2.95	275.309	987.83	9.83225	0.597792	0	-0.278928	0.134696	0.483299	0.00481046	0	0	0	0	0	0	0	0	0
2.96	266.647	734.089	19.359	0.556498	0	-0.279696	-0.0949519	-0.261406	-0.00689366	0	0	0	0	0	0	0	0	0
2.97	223.758	486.013	23.3919	0.516839	0	-0.280219	-0.191373	-0.415671	-0.0200064	0	0	0	0	0	0	0	0	0
2.98	157.437	280.683	22.6261	0.486866	0	-0.278338	-0.0566862	-0.101062	-0.00814666	0	0	0	0	0	0	0	0	0
